# xmcd CD database file
#
# Track frame offsets:
#	150
#	19487
#	36299
#	59819
#	75467
#	95488
#	118334
#	137061
#	158366
#	177878
#	195706
#	222140
#
# Disc length: 3125 seconds
#
# Revision: 0
# Processed by: cddbd v1.5.2PL0 Copyright (c) Steve Scherf et al.
# Submitted via: CDex 1.51
#
DISCID=a70c330c
DTITLE=Conjunto Massalia - Bailadora
DYEAR=2005
DGENRE=Salsa
TTITLE0=Olguita
TTITLE1=Africarnaval
TTITLE2=Bailadora
TTITLE3=La trampa
TTITLE4=Enamorado
TTITLE5=Permiso
TTITLE6=Mi hija
TTITLE7=Missie Felipe
TTITLE8=Alejaste
TTITLE9=Homenaje a madera
TTITLE10=Cafetero
TTITLE11=Cumbe
EXTD=YEAR: 2005
EXTT0=
EXTT1=
EXTT2=
EXTT3=
EXTT4=
EXTT5=
EXTT6=
EXTT7=
EXTT8=
EXTT9=
EXTT10=
EXTT11=
PLAYORDER=
